<svg xmlns="http://www.w3.org/2000/svg" viewBox="0 0 200 240" width="100%" height="100%" fill="#1D5A22">
  <!-- Toga / Topi Wisuda -->
  <path d="M 72 37 L 100 27 L 128 37 L 100 47 Z" />
  <path d="M 85 42 Q 100 49 115 42 L 115 47 Q 100 54 85 47 Z" />
  <!-- Kuncir / Tassel Toga -->
  <path d="M 122 35 L 125 49" stroke="#1D5A22" stroke-width="2.5" stroke-linecap="round" fill="none" />
  <circle cx="125" cy="52" r="2.5" />

  <!-- Kepala -->
  <circle cx="100" cy="70" r="18" />

  <!-- Tubuh & Tangan (Siluet V/Y) -->
  <path d="M 32 75 
           C 58 89, 78 103, 100 103 
           C 122 103, 142 89, 168 75 
           C 152 108, 125 150, 104 220 
           C 102 226, 98 226, 96 220 
           C 75 150, 48 108, 32 75 Z" />
</svg>
